<svg width="20" height="20" viewBox="0 0 20 20" fill="none" xmlns="http://www.w3.org/2000/svg">
<path d="M14.875 12.8003L17.3225 3.21726H20V1.71094H16.1525L15.5756 3.96998L0 3.95884L1.65592 12.8003H14.875V12.8003ZM15.191 5.47604L13.7051 11.294H2.9063L1.81486 5.46647L15.191 5.47604Z" fill="#4D5464"/>
<path d="M12.8126 18.2904C14.1409 18.2904 15.2215 17.2097 15.2215 15.8815C15.2215 14.5532 14.1409 13.4727 12.8126 13.4727H3.737C2.40876 13.4727 1.32812 14.5532 1.32812 15.8815C1.32812 17.2097 2.40874 18.2904 3.737 18.2904C5.06527 18.2904 6.14586 17.2097 6.14586 15.8815C6.14586 15.5625 6.08337 15.2579 5.97026 14.979H10.5794C10.4662 15.2579 10.4038 15.5625 10.4038 15.8815C10.4038 17.2097 11.4844 18.2904 12.8126 18.2904ZM4.63954 15.8815C4.63954 16.3792 4.23467 16.784 3.737 16.784C3.23934 16.784 2.83445 16.3792 2.83445 15.8815C2.83445 15.3838 3.23932 14.979 3.737 14.979C4.23467 14.979 4.63954 15.3838 4.63954 15.8815ZM13.7152 15.8815C13.7152 16.3792 13.3103 16.784 12.8127 16.784C12.315 16.784 11.9101 16.3792 11.9101 15.8815C11.9101 15.3838 12.315 14.979 12.8127 14.979C13.3103 14.979 13.7152 15.3838 13.7152 15.8815Z" fill="#4D5464"/>
</svg>
